<svg xmlns="http://www.w3.org/2000/svg" xmlns:xlink="http://www.w3.org/1999/xlink" width="965" zoomAndPan="magnify" viewBox="0 0 723.75 473.999983" height="632" preserveAspectRatio="xMidYMid meet" version="1.0"><defs><filter x="0%" y="0%" width="100%" height="100%" id="867ab5aa45"><feColorMatrix values="0 0 0 0 1 0 0 0 0 1 0 0 0 0 1 0 0 0 1 0" color-interpolation-filters="sRGB"/></filter><g/><clipPath id="d859d04000"><path d="M 0 0.0820312 L 723.5 0.0820312 L 723.5 473.917969 L 0 473.917969 Z M 0 0.0820312 " clip-rule="nonzero"/></clipPath><mask id="fcc017ec1f"><g filter="url(#867ab5aa45)"><rect x="-72.375" width="868.5" fill="#000000" y="-47.399998" height="568.79998" fill-opacity="0.06"/></g></mask><clipPath id="aa95683705"><rect x="0" width="7" y="0" height="21"/></clipPath></defs><g clip-path="url(#d859d04000)"><path fill="#a0b888" d="M 128.074219 473.773438 C 99.761719 473.773438 75.558594 453.984375 69.535156 426.867188 C 64.304688 423 59.769531 418.332031 56.003906 412.929688 C 53.441406 409.257812 51.320312 405.34375 49.652344 401.238281 C 37.359375 399.105469 26.050781 393.179688 17.152344 384.085938 C 6.109375 372.804688 0.0234375 357.914062 0.0234375 342.15625 L 0.0234375 131.683594 C 0.0234375 115.925781 6.109375 101.035156 17.152344 89.753906 C 26.050781 80.664062 37.359375 74.734375 49.652344 72.601562 C 51.320312 68.496094 53.441406 64.585938 56.003906 60.910156 C 59.769531 55.507812 64.304688 50.835938 69.539062 46.96875 C 75.570312 19.855469 99.769531 0.0664062 128.074219 0.0664062 L 595.144531 0.0664062 C 623.457031 0.0664062 647.660156 19.855469 653.683594 46.972656 C 658.914062 50.839844 663.449219 55.507812 667.214844 60.910156 C 669.777344 64.585938 671.898438 68.496094 673.566406 72.601562 C 685.859375 74.734375 697.167969 80.660156 706.066406 89.753906 C 717.109375 101.035156 723.195312 115.925781 723.195312 131.683594 L 723.195312 342.15625 C 723.195312 357.914062 717.109375 372.804688 706.066406 384.085938 C 697.167969 393.179688 685.859375 399.105469 673.566406 401.238281 C 671.898438 405.34375 669.777344 409.257812 667.214844 412.929688 C 663.449219 418.332031 658.914062 423.003906 653.679688 426.871094 C 647.648438 453.984375 623.449219 473.773438 595.144531 473.773438 Z M 128.074219 473.773438 " fill-opacity="1" fill-rule="nonzero"/></g><path fill="#ffde5b" d="M 595.144531 462.988281 L 128.074219 462.988281 C 103.472656 462.988281 82.65625 444.769531 79.34375 420.496094 C 73.601562 416.941406 68.726562 412.320312 64.851562 406.761719 C 61.558594 402.039062 59.148438 396.835938 57.679688 391.289062 C 45.246094 390.710938 33.628906 385.5 24.859375 376.542969 C 15.796875 367.289062 10.8125 355.074219 10.8125 342.15625 L 10.8125 131.683594 C 10.8125 118.765625 15.800781 106.554688 24.859375 97.296875 C 33.625 88.339844 45.246094 83.132812 57.679688 82.550781 C 59.148438 77.003906 61.558594 71.804688 64.851562 67.078125 C 68.726562 61.515625 73.601562 56.898438 79.34375 53.34375 C 82.664062 29.066406 103.480469 10.851562 128.074219 10.851562 L 595.144531 10.851562 C 619.746094 10.851562 640.5625 29.066406 643.878906 53.34375 C 649.617188 56.894531 654.492188 61.515625 658.367188 67.074219 C 661.664062 71.800781 664.070312 77 665.539062 82.546875 C 677.972656 83.128906 689.589844 88.335938 698.359375 97.296875 C 707.421875 106.550781 712.40625 118.761719 712.40625 131.683594 L 712.40625 342.152344 C 712.40625 355.070312 707.417969 367.28125 698.359375 376.539062 C 689.59375 385.496094 677.972656 390.707031 665.539062 391.285156 C 664.070312 396.832031 661.664062 402.03125 658.367188 406.757812 C 654.492188 412.320312 649.617188 416.9375 643.875 420.496094 C 640.554688 444.773438 619.738281 462.988281 595.144531 462.988281 Z M 128.074219 13.933594 C 104.785156 13.933594 85.109375 31.355469 82.304688 54.460938 L 82.21875 55.210938 L 81.570312 55.597656 C 75.925781 58.976562 71.152344 63.433594 67.382812 68.839844 C 64.082031 73.570312 61.730469 78.808594 60.390625 84.410156 L 60.113281 85.566406 L 58.929688 85.59375 C 34.097656 86.164062 13.894531 106.839844 13.894531 131.683594 L 13.894531 342.15625 C 13.894531 367 34.097656 387.675781 58.929688 388.246094 L 60.113281 388.273438 L 60.390625 389.429688 C 61.730469 395.03125 64.085938 400.269531 67.382812 405 C 71.152344 410.410156 75.925781 414.863281 81.570312 418.242188 L 82.21875 418.628906 L 82.304688 419.378906 C 85.105469 442.484375 104.78125 459.90625 128.074219 459.90625 L 595.144531 459.90625 C 618.433594 459.90625 638.109375 442.484375 640.914062 419.378906 L 641 418.628906 L 641.648438 418.242188 C 647.292969 414.863281 652.070312 410.410156 655.835938 405 C 659.136719 400.269531 661.488281 395.03125 662.828125 389.429688 L 663.105469 388.273438 L 664.292969 388.246094 C 689.121094 387.675781 709.324219 367 709.324219 342.15625 L 709.324219 131.683594 C 709.324219 106.839844 689.121094 86.164062 664.289062 85.59375 L 663.105469 85.566406 L 662.828125 84.410156 C 661.488281 78.808594 659.132812 73.570312 655.835938 68.839844 C 652.070312 63.433594 647.292969 58.976562 641.648438 55.597656 L 641 55.210938 L 640.914062 54.460938 C 638.113281 31.355469 618.441406 13.933594 595.144531 13.933594 Z M 128.074219 13.933594 " fill-opacity="1" fill-rule="nonzero"/><path fill="#ffde5b" d="M 595.144531 452.972656 L 128.074219 452.972656 C 106.636719 452.972656 89.167969 435.660156 88.90625 414.28125 C 82.554688 411.367188 77.082031 406.792969 73.070312 401.035156 C 69.007812 395.207031 66.625 388.40625 66.148438 381.324219 L 60 381.324219 C 38.402344 381.324219 20.832031 363.753906 20.832031 342.15625 L 20.832031 131.683594 C 20.832031 110.085938 38.402344 92.515625 60 92.515625 L 66.148438 92.515625 C 66.625 85.433594 69.011719 78.632812 73.070312 72.808594 C 77.085938 67.046875 82.554688 62.476562 88.90625 59.558594 C 89.175781 38.171875 106.644531 20.867188 128.074219 20.867188 L 595.144531 20.867188 C 616.582031 20.867188 634.050781 38.179688 634.3125 59.558594 C 640.664062 62.472656 646.136719 67.046875 650.148438 72.808594 C 654.210938 78.632812 656.59375 85.433594 657.070312 92.515625 L 663.21875 92.515625 C 684.816406 92.515625 702.386719 110.085938 702.386719 131.683594 L 702.386719 342.15625 C 702.386719 363.753906 684.816406 381.324219 663.21875 381.324219 L 657.070312 381.324219 C 656.59375 388.40625 654.207031 395.207031 650.148438 401.035156 C 646.132812 406.792969 640.664062 411.363281 634.3125 414.28125 C 634.042969 435.671875 616.578125 452.972656 595.144531 452.972656 Z M 59.996094 94.054688 C 39.246094 94.054688 22.367188 110.933594 22.367188 131.683594 L 22.367188 342.15625 C 22.367188 362.90625 39.246094 379.785156 59.996094 379.785156 L 67.605469 379.785156 L 67.644531 380.519531 C 68.335938 394.796875 76.898438 407.273438 89.988281 413.078125 L 90.449219 413.28125 L 90.449219 413.78125 C 90.449219 434.550781 107.332031 451.429688 128.078125 451.429688 L 595.148438 451.429688 C 615.898438 451.429688 632.777344 434.550781 632.777344 413.800781 L 632.777344 413.300781 L 633.234375 413.078125 C 646.328125 407.269531 654.886719 394.796875 655.582031 380.519531 L 655.617188 379.785156 L 663.226562 379.785156 C 683.976562 379.785156 700.855469 362.90625 700.855469 342.15625 L 700.855469 131.683594 C 700.855469 110.933594 683.976562 94.054688 663.226562 94.054688 L 655.617188 94.054688 L 655.582031 93.324219 C 654.886719 79.042969 646.328125 66.566406 633.234375 60.761719 L 632.777344 60.558594 L 632.777344 60.058594 C 632.777344 39.289062 615.894531 22.410156 595.148438 22.410156 L 128.074219 22.410156 C 107.324219 22.410156 90.445312 39.289062 90.445312 60.039062 L 90.445312 60.539062 L 89.988281 60.761719 C 76.894531 66.570312 68.332031 79.042969 67.640625 93.324219 L 67.601562 94.054688 Z M 59.996094 94.054688 " fill-opacity="1" fill-rule="nonzero"/><g mask="url(#fcc017ec1f)"><g transform="matrix(1, 0, 0, 1, 396, 237)"><g clip-path="url(#aa95683705)"><g fill="#000000" fill-opacity="1"><g transform="translate(0.940029, 13.849367)"><g><path d="M 1.609375 -1.25 C 1.609375 -1.644531 1.707031 -1.984375 1.90625 -2.265625 C 2.101562 -2.554688 2.367188 -2.703125 2.703125 -2.703125 C 3.046875 -2.703125 3.304688 -2.554688 3.484375 -2.265625 C 3.671875 -1.984375 3.765625 -1.644531 3.765625 -1.25 C 3.765625 -0.863281 3.671875 -0.523438 3.484375 -0.234375 C 3.304688 0.0546875 3.046875 0.203125 2.703125 0.203125 C 2.347656 0.203125 2.078125 0.0625 1.890625 -0.21875 C 1.703125 -0.507812 1.609375 -0.851562 1.609375 -1.25 Z M 1.609375 -1.25 "/></g></g></g></g></g></g></svg>