<svg version="1.0" preserveAspectRatio="xMidYMid meet" height="596" viewBox="0 0 449.25 446.999989" zoomAndPan="magnify" width="599" xmlns:xlink="http://www.w3.org/1999/xlink" xmlns="http://www.w3.org/2000/svg"><defs><filter id="2ca4a7c9c9" height="100%" width="100%" y="0%" x="0%"><feColorMatrix color-interpolation-filters="sRGB" values="0 0 0 0 1 0 0 0 0 1 0 0 0 0 1 0 0 0 1 0"></feColorMatrix></filter><g></g><clipPath id="f422f2f243"><path clip-rule="nonzero" d="M 0 0.371094 L 447.753906 0.371094 L 447.753906 446.625 L 0 446.625 Z M 0 0.371094"></path></clipPath><clipPath id="56ae528fda"><path clip-rule="nonzero" d="M 0 0.371094 L 447.753906 0.371094 L 447.753906 446.625 L 0 446.625 Z M 0 0.371094"></path></clipPath><mask id="b881478080"><g filter="url(#2ca4a7c9c9)"><rect fill-opacity="0.01" height="536.399987" y="-44.699999" fill="#000000" width="539.1" x="-44.925"></rect></g></mask><clipPath id="9ab17a12a5"><path clip-rule="nonzero" d="M 0.484375 1 L 0.960938 1 L 0.960938 1.6875 L 0.484375 1.6875 Z M 0.484375 1"></path></clipPath><clipPath id="5692535956"><rect height="2" y="0" width="1" x="0"></rect></clipPath></defs><g clip-path="url(#f422f2f243)"><path fill-rule="nonzero" fill-opacity="1" d="M 426.757812 49.550781 C 410.910156 49.105469 398.136719 36.335938 397.691406 20.484375 L 397.097656 -0.574219 L 52.421875 -0.574219 L 53.054688 21.710938 L 53.121094 22.976562 C 52.90625 39.328125 39.539062 52.570312 23.785156 52.585938 L -0.0195312 51.867188 L -0.0195312 396.539062 L 21.035156 397.136719 C 36.890625 397.585938 49.660156 410.359375 50.105469 426.207031 L 50.703125 447.265625 L 395.375 447.265625 L 394.738281 424.972656 L 394.675781 423.71875 C 394.890625 407.480469 408.066406 394.316406 424.304688 394.117188 L 447.820312 394.820312 L 447.820312 50.148438 L 426.757812 49.550781" fill="#79b3a4"></path></g><path fill-rule="nonzero" fill-opacity="1" d="M 426.453125 60.382812 C 404.863281 59.769531 387.472656 42.378906 386.863281 20.785156 L 386.5625 10.257812 L 63.570312 10.257812 L 63.886719 21.40625 L 63.957031 22.570312 C 63.957031 45.078125 45.65625 63.390625 23.058594 63.390625 C 23.050781 63.390625 23.042969 63.390625 23.035156 63.390625 L 10.8125 63.015625 L 10.8125 386.003906 L 21.34375 386.304688 C 42.933594 386.917969 60.324219 404.308594 60.9375 425.894531 L 61.234375 436.425781 L 384.226562 436.425781 L 383.90625 425.285156 L 383.839844 424.117188 C 383.839844 401.601562 402.152344 383.285156 424.667969 383.285156 L 424.667969 372.519531 L 424.808594 383.296875 L 436.984375 383.667969 L 436.984375 60.679688 L 426.453125 60.382812" fill="#f5f5e9"></path><g clip-path="url(#56ae528fda)"><path stroke-miterlimit="10" stroke-opacity="1" stroke-width="35.360001" stroke="#e78f76" d="M 4646.159548 901.75156 C 4651.478464 901.75156 4656.671736 901.08146 4661.990652 900.955817 L 4661.990652 4131.46431 C 4368.696415 4139.756793 4132.946985 4375.548104 4124.654502 4668.80046 L 894.104128 4668.80046 C 894.271653 4663.523425 894.941752 4658.330153 894.941752 4652.969356 C 894.941752 4347.026988 646.879241 4098.964477 340.936873 4098.964477 C 335.576076 4098.964477 330.424685 4099.634577 325.105769 4099.802102 L 325.105769 869.293609 C 618.358125 860.959244 854.149437 625.209814 862.44192 331.915577 L 4092.950412 331.915577 C 4092.824769 337.234493 4092.19655 342.427765 4092.19655 347.746681 C 4092.19655 653.73093 4340.175299 901.75156 4646.159548 901.75156 Z M 4646.159548 901.75156" stroke-linejoin="miter" fill="none" transform="matrix(0.0932697, 0, 0, -0.0932697, -8.674084, 456.55142)" stroke-linecap="butt"></path></g><g mask="url(#b881478080)"><g transform="matrix(1, 0, 0, 1, 213, 193)"><g clip-path="url(#5692535956)"><g clip-path="url(#9ab17a12a5)"><g fill-opacity="1" fill="#000000"><g transform="translate(0.684554, 1.28639)"><g><path d="M 0.078125 -0.0625 C 0.078125 -0.0820312 0.0820312 -0.0976562 0.09375 -0.109375 C 0.101562 -0.117188 0.113281 -0.125 0.125 -0.125 C 0.144531 -0.125 0.160156 -0.117188 0.171875 -0.109375 C 0.179688 -0.0976562 0.1875 -0.0820312 0.1875 -0.0625 C 0.1875 -0.0390625 0.179688 -0.0195312 0.171875 0 C 0.160156 0.0078125 0.144531 0.015625 0.125 0.015625 C 0.113281 0.015625 0.101562 0.0078125 0.09375 0 C 0.0820312 -0.0195312 0.078125 -0.0390625 0.078125 -0.0625 Z M 0.078125 -0.0625"></path></g></g></g></g></g></g></g></svg>